<?xml version="1.0" encoding="UTF-8" standalone="no"?>
<!-- Created with Inkscape (http://www.inkscape.org/) -->

<svg
   version="1.1"
   id="svg2"
   width="800"
   height="800"
   viewBox="0 0 799.99997 800"
   sodipodi:docname="discord.svg"
   inkscape:version="1.2.1 (9c6d41e410, 2022-07-14)"
   xmlns:inkscape="http://www.inkscape.org/namespaces/inkscape"
   xmlns:sodipodi="http://sodipodi.sourceforge.net/DTD/sodipodi-0.dtd"
   xmlns="http://www.w3.org/2000/svg"
   xmlns:svg="http://www.w3.org/2000/svg">
  <defs
     id="defs6" />
  <sodipodi:namedview
     id="namedview4"
     pagecolor="#505050"
     bordercolor="#eeeeee"
     borderopacity="1"
     inkscape:showpageshadow="0"
     inkscape:pageopacity="0"
     inkscape:pagecheckerboard="0"
     inkscape:deskcolor="#505050"
     showgrid="true"
     inkscape:zoom="0.7071068"
     inkscape:cx="746.70474"
     inkscape:cy="455.37675"
     inkscape:window-width="1920"
     inkscape:window-height="1017"
     inkscape:window-x="1912"
     inkscape:window-y="5"
     inkscape:window-maximized="1"
     inkscape:current-layer="g8">
    <sodipodi:guide
       position="0,799.99999"
       orientation="0,800"
       id="guide20624"
       inkscape:locked="false" />
    <sodipodi:guide
       position="799.99999,799.99999"
       orientation="800,0"
       id="guide20626"
       inkscape:locked="false" />
    <sodipodi:guide
       position="799.99999,0"
       orientation="0,-800"
       id="guide20628"
       inkscape:locked="false" />
    <sodipodi:guide
       position="0,0"
       orientation="-800,0"
       id="guide20630"
       inkscape:locked="false" />
    <sodipodi:guide
       position="0,799.99999"
       orientation="0,800"
       id="guide20632"
       inkscape:locked="false" />
    <sodipodi:guide
       position="799.99999,799.99999"
       orientation="800,0"
       id="guide20634"
       inkscape:locked="false" />
    <sodipodi:guide
       position="799.99999,0"
       orientation="0,-800"
       id="guide20636"
       inkscape:locked="false" />
    <sodipodi:guide
       position="0,0"
       orientation="-800,0"
       id="guide20638"
       inkscape:locked="false" />
    <inkscape:grid
       type="xygrid"
       id="grid20640"
       spacingy="99.999998"
       spacingx="99.999998" />
  </sodipodi:namedview>
  <g
     inkscape:groupmode="layer"
     inkscape:label="Image"
     id="g8">
    <g
       id="g20622"
       transform="matrix(1.1643824,0,0,1.1643824,-431.03534,-53.113592)">
      <path
         id="path408"
         style="fill:#ececec;stroke:none"
         sodipodi:type="inkscape:offset"
         inkscape:radius="2.2913482"
         inkscape:original="M 646.41016 214.06445 C 637.04306 214.06045 614.15016 218.5245 598.5 223.66602 C 587.28478 227.35052 562.57558 239.26178 550.02148 247.03516 C 535.67171 255.92039 533.52801 258.50567 525.58008 276.51758 C 495.34588 345.03544 478.43933 414.9546 475.51953 483.53906 L 474.90039 498.07812 L 481.26953 505.53906 C 506.22918 534.7762 546.38417 555.70084 584.57227 559.37109 C 589.48256 559.84302 594.22113 560.29093 595.10156 560.36523 C 599.3856 560.72692 603.33091 557.91575 610.44922 549.43164 C 620.98801 536.87077 626.23508 529.55617 625.70312 528.16992 C 625.45091 527.5126 620.31912 524.83438 614.29883 522.21875 C 601.40729 516.61777 587.68933 508.92213 580 502.97656 C 571.49055 496.39687 559.25754 483.27016 561.13867 482.75195 L 561.20898 482.75195 C 562.21293 482.61532 569.77595 485.88174 578.15234 490.07812 C 610.17593 506.12129 644.2937 516.97838 676.93164 521.51172 C 690.41416 523.38442 727.0095 524.51662 742.1582 523.5293 C 781.09965 520.99127 816.42651 510.7144 859.79883 489.30664 C 868.73712 484.89487 876.31775 481.56748 876.69922 481.88672 C 876.70622 481.89072 876.71616 481.89053 876.72266 481.89453 C 876.97958 482.15997 877.01059 482.58245 876.86523 483.12305 C 876.85243 483.17665 876.81933 483.24414 876.80273 483.30078 C 875.43372 487.50905 863.785 498.51018 851.62109 506.64648 C 841.32139 513.53584 833.50423 517.62089 819.41797 523.48047 C 813.96261 525.74978 809.13666 527.97077 808.69141 528.41406 C 807.71569 529.38549 817.40211 541.75836 827.30859 552.19336 L 834.5 559.76758 L 844 559.15234 C 855.99668 558.37511 875.08523 554.46569 886.61328 550.42578 C 899.43452 545.93268 917.28698 536.43271 928.11523 528.3418 C 939.11607 520.12193 942.79304 516.73462 952.16211 506.18555 L 959.10352 498.37109 L 958.50781 484.68555 C 956.60204 440.7815 952.63634 411.7446 943.45703 374.5 C 934.13765 336.6871 917.83938 291.23614 904.29297 265.2832 C 899.08365 255.3029 888.09728 247.29803 862.5 234.83203 C 831.13203 219.55567 784.5468 209.42221 781.55273 217.22461 C 780.58767 219.73954 782.72223 221.24331 791.32422 224.10352 C 800.71427 227.22576 818.62968 234.51969 831 240.25586 C 845.72089 247.082 871.46685 263.22355 872.76172 266.34375 C 872.81282 266.54698 872.90806 266.76712 872.8457 266.92969 C 872.7749 267.11411 872.53139 267.17441 872.30078 267.24609 C 870.64759 267.40875 865.49372 265.45623 852.3457 259.88672 C 818.33316 245.47899 782.9711 236.2441 751.5 233.54883 C 733.45655 232.00353 693.69156 232.26101 678.75586 234.01953 C 640.1103 238.56965 608.44333 246.51321 574.69531 260.125 C 566.00241 263.63117 558.20175 266.5 557.36133 266.5 C 554.44848 266.5 556.6695 263.97494 564.06641 258.87891 C 581.16463 247.09923 609.45265 233.31525 634.44336 224.58398 C 653.52955 217.91565 656.16833 216.12554 649.53516 214.35156 C 648.80963 214.15753 647.74831 214.06506 646.41016 214.06445 z M 791.33008 368.20312 C 797.50917 368.07207 803.81779 369.35012 809.82031 372.25586 C 817.16724 375.8124 826.93776 385.56105 830.31836 392.70703 C 832.71743 397.77823 834.22432 404.85521 834.61328 411.76758 C 834.63748 412.51161 834.68606 413.19646 834.69336 413.98828 C 834.73186 416.02249 834.72276 418.0483 834.53906 419.95508 C 833.12297 434.65747 822.59586 449.51824 809.13281 455.81836 C 805.25126 457.63475 802.77007 458.43118 799.1582 458.83789 C 797.676 458.93279 796.46034 459.02835 793.5 459.07812 C 791.19767 459.11683 789.33879 459.10363 787.64453 459.05273 C 777.14225 458.29808 769.88527 454.38421 761.48828 445.31445 C 753.00549 436.15203 750.66945 430.42414 750.16797 417.57422 C 750.06237 414.8683 750.11064 412.17443 750.21094 409.64648 C 750.23224 409.00076 750.26256 408.43351 750.28906 407.84961 C 750.4422 405.36481 750.66585 403.07715 751 401.57422 C 755.42395 381.67654 772.7928 368.59629 791.33008 368.20312 z M 640.48242 369 C 650.79818 369 651.92884 369.20361 658.24023 372.19336 C 667.32008 376.49454 674.1278 383.46781 678.80078 393.25391 C 681.1355 398.14321 681.93234 400.21876 682.25 404.21289 L 682.25 414.04492 L 682.25 423.84375 C 681.94251 427.70647 681.20035 429.68425 679.10938 433.93164 C 674.84015 442.60364 665.54079 452.11035 657.46289 456.0625 C 649.63151 459.89405 635.43383 460.62915 627.32812 457.62305 C 610.29106 451.3046 599.49774 435.10127 598.11328 417.54883 C 598.08558 417.15791 598.05055 416.77002 598.03125 416.375 C 597.59807 408.44637 599.06873 400.2847 602.78516 392.66211 C 606.80228 384.42276 614.92828 376.15268 622.82422 372.26758 C 629.10557 369.17689 630.06174 369 640.48242 369 z "
         d="m 646.41211,211.77344 c -10.09668,-0.004 -32.72094,4.48927 -48.62695,9.71484 -11.6583,3.83006 -36.16321,15.66933 -48.97071,23.59961 -14.43206,8.93619 -17.3534,12.42686 -25.33007,30.50391 -30.33927,68.75595 -47.32094,138.95573 -50.25391,207.84961 l -0.61914,14.53906 a 2.2915774,2.2915774 0 0 0 0.54687,1.58594 l 6.36914,7.46093 c 25.39707,29.74952 65.96479,50.89004 104.82618,54.625 4.91259,0.47216 9.59182,0.91484 10.55468,0.9961 2.69666,0.22767 5.43114,-0.64028 8.13477,-2.56641 2.70363,-1.92613 5.54907,-4.87146 9.16211,-9.17773 5.28981,-6.30477 9.25932,-11.29937 11.88476,-14.95899 1.31273,-1.8298 2.28829,-3.3142 2.95313,-4.54492 0.33242,-0.61536 0.58937,-1.1611 0.77344,-1.74219 0.18406,-0.58109 0.43832,-1.23252 0.0254,-2.30859 -0.40381,-1.05242 -0.73261,-1.07313 -1.02149,-1.30469 -0.28888,-0.23155 -0.58747,-0.43396 -0.9375,-0.6543 -0.70005,-0.44067 -1.59085,-0.93713 -2.6582,-1.49414 -2.13471,-1.114 -4.95962,-2.4524 -8.01367,-3.77929 -12.73287,-5.53204 -26.40562,-13.22897 -33.8086,-18.95313 -4.09173,-3.16381 -9.24513,-8.05079 -13.05273,-12.13476 -0.63617,-0.68235 -0.91762,-1.10023 -1.46875,-1.72657 2.90494,1.27613 6.418,2.90644 10.24609,4.82422 32.23617,16.14967 66.57404,27.08231 99.49024,31.6543 13.9175,1.93312 50.18832,3.04545 65.68945,2.03516 39.25228,-2.55829 74.95171,-12.95758 118.50586,-34.45508 4.43997,-2.19149 8.54387,-4.11468 11.55664,-5.4375 -0.0682,0.0831 -0.0501,0.0954 -0.12109,0.17969 -1.38935,1.64903 -3.29868,3.62046 -5.55078,5.7207 -4.5042,4.20047 -10.38339,8.92723 -16.34961,12.91797 -10.20229,6.8242 -17.79542,10.79305 -31.81055,16.62304 -2.75121,1.14445 -5.33904,2.27501 -7.31836,3.18555 -0.98966,0.45527 -1.82433,0.85409 -2.4707,1.1836 -0.32319,0.16475 -0.59737,0.30919 -0.8418,0.45117 -0.24443,0.14197 -0.38203,0.15745 -0.83203,0.60547 -0.82768,0.82404 -0.78051,1.75542 -0.71484,2.24218 0.0657,0.48676 0.1928,0.81039 0.33398,1.14453 0.28235,0.66829 0.66846,1.33347 1.16797,2.1211 0.99902,1.57526 2.45689,3.57381 4.2539,5.86914 3.59404,4.59066 8.52342,10.32851 13.53125,15.60351 l 7.19141,7.57422 a 2.2915774,2.2915774 0 0 0 1.81055,0.70899 l 9.5,-0.61524 c 12.33487,-0.79914 31.38498,-4.70315 43.22265,-8.85156 13.14607,-4.60693 31.00855,-14.1112 42.11524,-22.41016 11.04651,-8.25399 14.98366,-11.88116 24.38867,-22.4707 l 6.94141,-7.81445 a 2.2915774,2.2915774 0 0 0 0.57617,-1.6211 l -0.5957,-13.68554 c -1.90985,-43.99791 -5.90641,-73.27038 -15.11524,-110.63477 -9.36583,-38.00135 -25.65208,-83.47108 -39.35742,-109.72851 -5.58826,-10.70629 -17.10792,-18.92911 -42.82031,-31.45118 -15.90612,-7.74636 -35.50036,-14.12801 -51.63086,-17.63671 -8.06525,-1.75436 -15.24534,-2.79468 -20.78125,-2.89063 -2.76796,-0.048 -5.12005,0.12452 -7.08789,0.6582 -1.96785,0.53369 -3.82985,1.52144 -4.58985,3.50196 -0.36984,0.96381 -0.52116,2.20741 -0.10156,3.3457 0.4196,1.13829 1.25051,1.97649 2.21875,2.6582 1.93649,1.36342 4.70908,2.41901 9.07031,3.86914 9.20421,3.06045 27.15673,10.36381 39.4336,16.05664 7.19762,3.33757 17.29226,9.06063 25.66601,14.29883 3.25964,2.03907 5.866,3.83106 8.33789,5.55078 -2.89912,-1.14049 -5.80382,-2.29036 -10.79883,-4.40625 -34.21395,-14.49305 -69.77585,-23.79093 -101.54492,-26.51172 -18.35018,-1.57156 -57.82806,-1.33219 -73.20703,0.47852 -38.80877,4.56934 -70.72803,12.57375 -104.65039,26.25586 -3.66234,1.47716 -6.89486,2.71114 -9.77148,3.78906 0.60134,-0.43519 0.60407,-0.54345 1.30078,-1.02344 16.8136,-11.58359 45.04192,-25.35639 69.83203,-34.01757 9.57232,-3.34438 14.89157,-5.30041 17.7207,-7.21875 0.70728,-0.47959 1.32669,-0.94428 1.80469,-1.83203 0.478,-0.88776 0.39041,-2.47438 -0.22461,-3.30274 -1.23005,-1.65671 -2.58521,-1.77772 -4.37305,-2.25586 -1.08877,-0.29117 -2.27168,-0.36457 -3.71484,-0.36523 z m 144.9668,158.7207 c 5.83029,-0.12365 11.77039,1.07801 17.44336,3.82422 6.58599,3.18818 16.43051,13.03769 19.42578,19.36914 2.20311,4.65697 3.69909,11.52709 4.07617,18.18945 0.0262,0.78062 0.0717,1.43405 0.0781,2.13282 a 2.2915774,2.2915774 0 0 0 0,0.0215 c 0.0378,1.9986 0.025,3.94336 -0.14453,5.70313 a 2.2915774,2.2915774 0 0 0 0,0.002 c -1.32632,13.77035 -11.47019,28.09767 -24.0957,34.00586 -3.76101,1.75998 -5.85136,2.42925 -9.22656,2.8125 -1.47009,0.0946 -2.59313,0.18398 -5.47461,0.23242 -2.24891,0.0378 -4.04564,0.0231 -5.6875,-0.0254 -9.9909,-0.72552 -16.44078,-4.18717 -24.60352,-13.00391 -8.30184,-8.96697 -10.22119,-13.67407 -10.71289,-26.27343 -0.10223,-2.61952 -0.0559,-5.25348 0.043,-7.7461 a 2.2915774,2.2915774 0 0 0 0.002,-0.0156 c 0.02,-0.60533 0.0477,-1.15075 0.0742,-1.73243 v -0.006 c 0.15005,-2.43154 0.38618,-4.67981 0.66016,-5.91211 4.19435,-18.86503 20.65211,-31.20716 38.14258,-31.57813 z m -150.89649,0.79688 c 10.28561,0 10.52526,0.011 16.77735,2.97265 8.61438,4.08069 14.99017,10.59135 19.47265,19.97852 2.30278,4.82241 2.92633,6.3919 3.22656,10.10937 v 9.69336 9.66016 c -0.29051,3.59486 -0.85489,5.04793 -2.90625,9.21484 -3.97995,8.08441 -13.19914,17.46423 -20.59765,21.08399 -6.9533,3.40194 -21.15643,4.13113 -28.33008,1.4707 -16.13542,-5.98407 -26.40681,-21.37346 -27.72656,-38.10547 v 0.0176 c -0.0298,-0.42018 -0.0619,-0.78998 -0.0781,-1.12305 a 2.2915774,2.2915774 0 0 0 -0.002,-0.0137 c -0.4131,-7.56102 0.98891,-15.32649 4.52734,-22.58398 3.74838,-7.68815 11.69129,-15.75044 18.99024,-19.3418 6.22977,-3.06531 6.25173,-3.0332 16.64648,-3.0332 z" />
      <path
         id="path268"
         style="fill:#5d73c3;stroke-width:1.33333"
         sodipodi:type="inkscape:offset"
         inkscape:radius="0"
         inkscape:original="M 720.33398 73.728516 C 524.87124 74.097597 522.06332 74.201681 498.74609 82.013672 C 448.33549 98.902775 416.76113 135.93311 406.10547 190.66602 C 403.96574 201.65678 403.73198 217.74918 403.30664 382 C 402.83494 564.15471 403.02576 573.33023 407.80273 596.45703 C 418.32537 647.40038 455.55993 686.34857 506.0957 699.27344 C 514.34196 701.38248 526.54111 703.19664 545.66602 705.1582 C 548.23269 705.42148 630.13269 705.49972 727.66602 705.33398 C 912.03573 705.02067 910.3175 705.07205 932.9707 699.23242 C 984.92212 685.8402 1021.3585 645.93165 1031.998 590.76953 C 1034.1536 579.59372 1034.334 564.21638 1034.334 390 C 1034.334 213.20554 1034.1803 200.53561 1031.9102 188.66602 C 1027.2244 164.16642 1019.5635 146.18553 1006.0469 127.95703 C 984.94062 99.493131 954.46534 82.294821 913.66602 75.824219 C 899.30271 73.546256 887.07329 73.413669 720.33398 73.728516 z M 647.90039 213.48828 C 649.44121 213.56999 650.60407 213.78924 651.30078 214.16211 C 656.10209 216.73168 653.30671 218.78596 638.20703 223.78516 C 629.70429 226.60024 616.27139 231.76636 608.35547 235.26562 C 584.66631 245.73755 554.01976 264.08541 556.33398 266.41016 C 556.70064 266.77849 563.15452 264.44568 570.67773 261.22656 C 606.03004 246.09963 644.13441 236.71596 687 232.58203 C 707.25076 230.62905 747.09985 231.6794 767 234.68945 C 796.86916 239.2074 831.6183 249.51996 857.59961 261.57812 C 864.52958 264.79439 871.13088 267.24589 872.26758 267.02539 C 875.18722 266.45899 851.78739 251.08894 835.76562 243.04883 C 822.4027 236.34301 798.10353 226.41386 787.19531 223.20312 C 780.75775 221.3083 779.12639 219.06008 781.82812 215.80469 C 786.09801 210.65981 823.58409 217.64291 850.23047 228.54688 C 865.25986 234.69705 884.32142 245.13068 894.71484 252.89453 C 900.65412 257.33117 902.61489 259.98124 907.18359 269.74609 C 937.95566 335.51628 956.34319 409.10936 958.55078 475.33398 L 959.32812 498.66602 L 950.59961 508.83398 C 934.10047 528.05227 905.99197 545.71061 879.92383 553.23438 C 866.30769 557.16425 839.22797 561.34756 834.72266 560.2168 C 831.90736 559.5102 805.96983 529.22855 807.17773 528.05859 C 807.44645 527.79831 813.2236 525.39189 820.01562 522.71094 C 835.43842 516.62325 846.25166 510.57422 858.7168 501.05859 C 869.115 493.12081 878.65773 482.99724 876.43945 482.25781 C 875.6963 482.0101 868.91798 485.11 861.37695 489.14648 C 847.16797 496.75207 820.77662 507.75947 805.61133 512.4043 C 791.49022 516.72931 767.36526 521.73149 752.48438 523.41992 C 732.33797 525.7058 687.77812 524.33814 668.50781 520.84375 C 633.59037 514.51199 602.95097 504.05352 573.84375 488.5293 C 566.97447 484.86559 561.00899 482.21173 560.58789 482.63281 C 559.50399 483.71673 572.91203 497.12036 581.84766 503.88477 C 590.24705 510.24325 609.33895 520.34812 620 524.07812 C 623.85 525.42515 627 527.32986 627 528.31055 C 627 530.02542 613.49559 547.35605 605.16406 556.33398 C 601.50502 560.2769 600.47623 560.65184 593.73828 560.50391 C 553.90268 559.62925 507.53904 537.75782 482.71289 508.12891 L 475 498.92383 L 475 489.32227 C 475 445.93235 486.01386 384.51059 503.06836 332.7832 C 512.46308 304.2884 529.84754 262.98806 534.75586 257.50586 C 541.24666 250.25618 569.25764 234.37297 590.27148 226.02539 C 607.81145 219.05777 637.11463 212.91633 647.90039 213.48828 z M 791.67578 368.41797 C 785.69243 368.46067 779.66433 369.87948 773.96289 372.72852 C 764.49284 377.46076 758.64364 383.61434 753.80078 393.93945 C 749.09112 403.98056 748.78442 423.31265 753.18359 432.83008 C 758.37595 444.06356 770.14994 454.81872 780.51953 457.80273 C 782.98393 458.51189 788.65488 459.14679 793.12109 459.21289 C 808.39297 459.43905 823.27562 449.01097 830.78125 432.82617 C 833.64947 426.64128 834.26302 423.35438 834.29492 414 C 834.34514 399.23436 829.95559 388.96859 819.50781 379.41992 C 811.49747 372.09892 801.64803 368.3468 791.67578 368.41797 z M 643.50586 368.95898 C 630.67081 368.1206 622.41443 370.9613 613.19141 379.39062 C 595.2286 395.80762 593.09331 423.89476 608.3418 443.18555 C 613.71867 449.9878 620.14308 454.6217 628.17578 457.49219 C 634.86055 459.88101 646.65001 459.7444 654.14258 457.19141 C 662.69445 454.2775 673.9617 443.71431 678.60742 434.25391 C 681.8922 427.56488 682.33398 425.1678 682.33398 414 C 682.33398 403.08499 681.8451 400.29194 678.80273 393.80273 C 671.72551 378.70742 659.34494 369.99358 643.50586 368.95898 z "
         d="m 720.33398,73.728516 c -195.46274,0.369081 -198.27066,0.473165 -221.58789,8.285156 -50.4106,16.889103 -81.98496,53.919438 -92.64062,108.652348 -2.13973,10.99076 -2.37349,27.08316 -2.79883,191.33398 -0.4717,182.15471 -0.28088,191.33023 4.49609,214.45703 10.52264,50.94335 47.7572,89.89154 98.29297,102.81641 8.24626,2.10904 20.44541,3.9232 39.57032,5.88476 2.56667,0.26328 84.46667,0.34152 182,0.17578 184.36971,-0.31331 182.65148,-0.26193 205.30468,-6.10156 51.95142,-13.39222 88.3878,-53.30077 99.0273,-108.46289 2.1556,-11.17581 2.336,-26.55315 2.336,-200.76953 0,-176.79446 -0.1537,-189.46439 -2.4238,-201.33398 -4.6858,-24.4996 -12.3467,-42.48049 -25.8633,-60.70899 C 984.94062,99.493131 954.46534,82.294821 913.66602,75.824219 899.30271,73.546256 887.07329,73.413669 720.33398,73.728516 Z M 647.90039,213.48828 c 1.54082,0.0817 2.70368,0.30096 3.40039,0.67383 4.80131,2.56957 2.00593,4.62385 -13.09375,9.62305 -8.50274,2.81508 -21.93564,7.9812 -29.85156,11.48046 -23.68916,10.47193 -54.33571,28.81979 -52.02149,31.14454 0.36666,0.36833 6.82054,-1.96448 14.34375,-5.1836 35.35231,-15.12693 73.45668,-24.5106 116.32227,-28.64453 20.25076,-1.95298 60.09985,-0.90263 80,2.10742 29.86916,4.51795 64.6183,14.83051 90.59961,26.88867 6.92997,3.21627 13.53127,5.66777 14.66797,5.44727 2.91964,-0.5664 -20.48019,-15.93645 -36.50196,-23.97656 -13.36292,-6.70582 -37.66209,-16.63497 -48.57031,-19.84571 -6.43756,-1.89482 -8.06892,-4.14304 -5.36719,-7.39843 4.26989,-5.14488 41.75597,1.83822 68.40235,12.74219 15.02939,6.15017 34.09095,16.5838 44.48437,24.34765 5.93928,4.43664 7.90005,7.08671 12.46875,16.85156 30.77207,65.77019 49.1596,139.36327 51.36719,205.58789 l 0.77734,23.33204 -8.72851,10.16796 c -16.49914,19.21829 -44.60764,36.87663 -70.67578,44.4004 -13.61614,3.92987 -40.69586,8.11318 -45.20117,6.98242 -2.8153,-0.7066 -28.75283,-30.98825 -27.54493,-32.15821 0.26872,-0.26028 6.04587,-2.6667 12.83789,-5.34765 15.4228,-6.08769 26.23604,-12.13672 38.70118,-21.65235 10.3982,-7.93778 19.94093,-18.06135 17.72265,-18.80078 -0.74315,-0.24771 -7.52147,2.85219 -15.0625,6.88867 -14.20898,7.60559 -40.60033,18.61299 -55.76562,23.25782 -14.12111,4.32501 -38.24607,9.32719 -53.12695,11.01562 -20.14641,2.28588 -64.70626,0.91822 -83.97657,-2.57617 -34.91744,-6.33176 -65.55684,-16.79023 -94.66406,-32.31445 -6.86928,-3.66371 -12.83476,-6.31757 -13.25586,-5.89649 -1.0839,1.08392 12.32414,14.48755 21.25977,21.25196 8.39939,6.35848 27.49129,16.46335 38.15234,20.19335 3.85,1.34703 7,3.25174 7,4.23243 0,1.71487 -13.50441,19.0455 -21.83594,28.02343 -3.65904,3.94292 -4.68783,4.31786 -11.42578,4.16993 -39.8356,-0.87466 -86.19924,-22.74609 -111.02539,-52.375 L 475,498.92383 v -9.60156 c 0,-43.38992 11.01386,-104.81168 28.06836,-156.53907 9.39472,-28.4948 26.77918,-69.79514 31.6875,-75.27734 6.4908,-7.24968 34.50178,-23.13289 55.51562,-31.48047 17.53997,-6.96762 46.84315,-13.10906 57.62891,-12.53711 z m 143.77539,154.92969 c -5.98335,0.0427 -12.01145,1.46151 -17.71289,4.31055 -9.47005,4.73224 -15.31925,10.88582 -20.16211,21.21093 -4.70966,10.04111 -5.01636,29.3732 -0.61719,38.89063 5.19236,11.23348 16.96635,21.98864 27.33594,24.97265 2.4644,0.70916 8.13535,1.34406 12.60156,1.41016 15.27188,0.22616 30.15453,-10.20192 37.66016,-26.38672 2.86822,-6.18489 3.48177,-9.47179 3.51367,-18.82617 0.0502,-14.76564 -4.33933,-25.03141 -14.78711,-34.58008 -8.01034,-7.321 -17.85978,-11.07312 -27.83203,-11.00195 z m -148.16992,0.54101 c -12.83505,-0.83838 -21.09143,2.00232 -30.31445,10.43164 -17.96281,16.417 -20.0981,44.50414 -4.84961,63.79493 5.37687,6.80225 11.80128,11.43615 19.83398,14.30664 6.68477,2.38882 18.47423,2.25221 25.9668,-0.30078 8.55187,-2.91391 19.81912,-13.4771 24.46484,-22.9375 3.28478,-6.68903 3.72656,-9.08611 3.72656,-20.25391 0,-10.91501 -0.48888,-13.70806 -3.53125,-20.19727 -7.07722,-15.09531 -19.45779,-23.80915 -35.29687,-24.84375 z" />
    </g>
  </g>
</svg>
